<svg height="480pt" viewBox="-40 0 480 480" width="480pt" xmlns="http://www.w3.org/2000/svg"><path d="m80 296v-128h-32v-72c0-17.671875 14.328125-32 32-32h128v32h-80v40h32c8.839844 0 16 7.160156 16 16v88h-32v-72h-32v128" fill="#64a5f8"/><path d="m208 48h16v248h-16zm0 0" fill="#c1c8d1"/><path d="m400 296c0 53.019531-42.980469 96-96 96s-96-42.980469-96-96 42.980469-96 96-96 96 42.980469 96 96zm0 0" fill="#f9d18b"/><path d="m376 296c0 39.765625-32.234375 72-72 72s-72-32.234375-72-72 32.234375-72 72-72 72 32.234375 72 72zm0 0" fill="#fceac7"/><path d="m192 384c0 53.019531-42.980469 96-96 96s-96-42.980469-96-96 42.980469-96 96-96 96 42.980469 96 96zm0 0" fill="#f9d18b"/><path d="m168 384c0 39.765625-32.234375 72-72 72s-72-32.234375-72-72 32.234375-72 72-72 72 32.234375 72 72zm0 0" fill="#fceac7"/><path d="m104 48c8.839844 0 16-7.160156 16-16v-16c0-8.839844-7.160156-16-16-16s-16 7.160156-16 16v16c0 8.839844 7.160156 16 16 16zm0 0" fill="#64a5f8"/><path d="m208 0v64l80-32zm0 0" fill="#eb445c"/><path d="m304 288c-8.824219 0-16-7.175781-16-16s7.175781-16 16-16 16 7.175781 16 16h16c0-14.863281-10.238281-27.289062-24-30.863281v-17.136719h-16v17.136719c-13.761719 3.574219-24 16-24 30.863281 0 17.648438 14.351562 32 32 32 8.824219 0 16 7.175781 16 16s-7.175781 16-16 16-16-7.175781-16-16h-16c0 14.863281 10.238281 27.289062 24 30.863281v17.136719h16v-17.136719c13.761719-3.574219 24-16 24-30.863281 0-17.648438-14.351562-32-32-32zm0 0" fill="#f5b953"/><path d="m96 344c8.824219 0 16 7.175781 16 16h16c0-14.863281-10.238281-27.289062-24-30.863281v-17.136719h-16v17.136719c-13.761719 3.574219-24 16-24 30.863281 0 17.648438 14.351562 32 32 32 8.824219 0 16 7.175781 16 16s-7.175781 16-16 16-16-7.175781-16-16h-16c0 14.863281 10.238281 27.289062 24 30.863281v17.136719h16v-17.136719c13.761719-3.574219 24-16 24-30.863281 0-17.648438-14.351562-32-32-32-8.824219 0-16-7.175781-16-16s7.175781-16 16-16zm0 0" fill="#f5b953"/><path d="m72 120h8v48h-8zm0 0" fill="#93c1fa"/></svg>